# xmcd
#
# Track frame offsets:
#	150
#	15387
#	27187
#	44287
#	56700
#	65725
#	82700
#	94837
#	106187
#	117125
#	131112
#	142687
#	150775
#	163100
#	175350
#	188287
#
# Disc length: 2708 seconds
#
# Revision: 0
# Processed by: cddbd v1.4PL0 Copyright (c) Steve Scherf et al.
# Submitted via: dBpowerAMP V4.0
#
DISCID=bb0a9210
DTITLE=Various Artist - Country Romance
DYEAR=1900
DGENRE=
TTITLE0=For The Good Times/Kenny Rogers
TTITLE1=The Happiest Girl In The Whole USA/Donna Fargo
TTITLE2=Blue Bayou/Lynn Anderson
TTITLE3=Let It Be Me/The Everley Bros.
TTITLE4=Mean Old Greyhound Bus/Waylon Jennings
TTITLE5=I Let My Mind Wander/Willie Nelson
TTITLE6=On Her Way To Be A Woman/Don Williams
TTITLE7=I Cried All The Way To The Altar/Patsy Cline
TTITLE8=Cold,Cold Heart/Johnny Cash
TTITLE9=Mr Walker,It's All Over/Billie Jo Spears
TTITLE10=No-one Cared As Much/Oak Ridge Boys
TTITLE11=Wasted Days And Wasted Nights/Freddy Fender
TTITLE12=Youn Don't Have To Say You Love Me/Lynn Anderson
TTITLE13=Two Little Orphans/Dolly Parton
TTITLE14=Sleep Comes Easy/Kenny Rogers
TTITLE15=And So Will You My Love/Willie Nelson
EXTD=
EXTT0=
EXTT1=
EXTT2=
EXTT3=
EXTT4=
EXTT5=
EXTT6=
EXTT7=
EXTT8=
EXTT9=
EXTT10=
EXTT11=
EXTT12=
EXTT13=
EXTT14=
EXTT15=
PLAYORDER=
